<svg width="28" height="28" viewBox="0 0 28 28" fill="none" xmlns="http://www.w3.org/2000/svg">
<mask id="mask0_1_1947" style="mask-type:alpha" maskUnits="userSpaceOnUse" x="4" y="4" width="21" height="21">
<rect x="4.07153" y="4.07156" width="20.2209" height="20.2209" fill="#D9D9D9"/>
</mask>
<g mask="url(#mask0_1_1947)">
<path d="M15.5721 18.3525L11.865 14.6664C11.7948 14.5822 11.7456 14.5013 11.7175 14.4238C11.6895 14.3468 11.6754 14.2662 11.6754 14.182C11.6754 14.0977 11.6895 14.0168 11.7175 13.9393C11.7456 13.8624 11.7948 13.7818 11.865 13.6975L15.5721 10.0114C15.6564 9.91313 15.7547 9.86398 15.867 9.86398C15.9794 9.86398 16.0777 9.91313 16.1619 10.0114C16.2602 10.0957 16.3094 10.194 16.3094 10.3063C16.3094 10.4187 16.2602 10.5169 16.1619 10.6012L12.5811 14.182L16.1619 17.7628C16.2602 17.847 16.3094 17.9453 16.3094 18.0576C16.3094 18.17 16.2602 18.2683 16.1619 18.3525C16.0777 18.4508 15.9794 18.5 15.867 18.5C15.7547 18.5 15.6564 18.4508 15.5721 18.3525Z" fill="#131316"/>
</g>
</svg>
